<?xml version="1.0" encoding="UTF-8" standalone="no"?>
<!DOCTYPE svg PUBLIC "-//W3C//DTD SVG 1.1//EN" "http://www.w3.org/Graphics/SVG/1.1/DTD/svg11.dtd">
<svg width="100%" height="100%" viewBox="0 0 422 475" version="1.1" xmlns="http://www.w3.org/2000/svg" xmlns:xlink="http://www.w3.org/1999/xlink" xml:space="preserve" xmlns:serif="http://www.serif.com/" style="fill-rule:evenodd;clip-rule:evenodd;stroke-linejoin:round;stroke-miterlimit:2;">
    <g transform="matrix(1,0,0,1,-337.859,382.817)">
        <g transform="matrix(-0.718404,-6.84136,6.10424,-0.641,-1144.76,628.22)">
            <path d="M93.741,279.877L76.047,280.063L98.275,254.449L121.588,279.584L102.673,279.783C102.645,280.781 102.584,281.785 102.489,282.794C100.381,305.299 82.366,321.651 62.286,319.288C57.455,318.719 52.942,317.118 48.902,314.702L53.103,305.879C56.156,307.705 59.567,308.913 63.218,309.343C78.401,311.13 92.021,298.766 93.616,281.75C93.674,281.123 93.716,280.498 93.741,279.877Z" style="fill:white;"/>
        </g>
    </g>
</svg>
